<svg xmlns="http://www.w3.org/2000/svg" viewBox="0 0 966.69 1164.13"><defs><style>.cls-1,.cls-2{fill:none;}.cls-1,.cls-2,.cls-4{stroke:#f7cac9;}.cls-1{stroke-width:16px;}.cls-2{stroke-width:14px;}.cls-3,.cls-4{fill:#f7cac9;}.cls-4{stroke-miterlimit:10;stroke-width:12px;}</style></defs><g id="Calque_2" data-name="Calque 2"><g id="Calque_1-2" data-name="Calque 1"><path id="Tracé_1" data-name="Tracé 1" class="cls-1" d="M188.38,25.65,8.93,549.08l394.74,531.48L780.5,549.08,619,25.65,403.67,644Z"/><path id="Tracé_2" data-name="Tracé 2" class="cls-1" d="M8.93,549.08,403.67,240.93,780.5,549.08"/><path id="Tracé_3" data-name="Tracé 3" class="cls-1" d="M404,1080.53,961.81,651.42,650.08,737.5a.39.39,0,0,0-.2.13L403.46,1080A.36.36,0,0,0,404,1080.53Z"/><path id="Tracé_4" data-name="Tracé 4" class="cls-2" d="M802.06,776.57l-62.9-62.9"/><path id="Tracé_6" data-name="Tracé 6" class="cls-3" d="M188.38,154.82l43.06,172.54L80.73,456.53Z"/><path id="Tracé_6-2" data-name="Tracé 6" class="cls-3" d="M619,151.16l-50.51,176.2,150.7,129.17Z"/></g><g id="Calque_2-2" data-name="Calque 2"><path class="cls-4" d="M152.29,796.62a1.62,1.62,0,0,1,2.38.38l31,42.73a1.53,1.53,0,1,1-2.47,1.8l-30.05-41.36-44.38,32.25,30.05,41.36a1.53,1.53,0,1,1-2.47,1.79l-30-41.36L60.17,867.76a1.7,1.7,0,0,1-2-2.75Z"/><path class="cls-4" d="M138,902.33l60.32-43.82a1.7,1.7,0,1,1,2,2.75L140,905.08c-20.61,15-24.19,38.36-11.61,55.67s35.92,21.14,56.53,6.16l60.32-43.82a1.7,1.7,0,1,1,2,2.74L186.9,969.66c-22,16-47.33,11.72-61-7.11S116,918.3,138,902.33Z"/><path class="cls-4" d="M238.84,1014.85l18.34-73.57a1.78,1.78,0,0,1,.66-1.11,1.82,1.82,0,0,1,2.37.37,1.75,1.75,0,0,1,.25,1.5l-18.15,72.39,74.42,5.34a1.79,1.79,0,0,1,1.35.7,1.52,1.52,0,0,1-.34,2.14,1.82,1.82,0,0,1-1.26.28L241,1017.5l-47.13,34.24a1.69,1.69,0,1,1-2-2.74Z"/><path class="cls-4" d="M267.76,1081l60.33-43.82a1.69,1.69,0,1,1,2,2.74l-60.32,43.83c-20.61,15-24.19,38.36-11.61,55.67s35.92,21.13,56.53,6.16L375,1101.72a1.61,1.61,0,0,1,2.38.37,1.6,1.6,0,0,1-.38,2.37l-60.32,43.83c-22,16-47.33,11.71-61-7.11S245.78,1096.93,267.76,1081Z"/></g></g></svg>