<svg xmlns="http://www.w3.org/2000/svg" viewBox="0 0 957.75 1143.6"><defs><style>.cls-1,.cls-3{fill:#fff;}.cls-1,.cls-2,.cls-3,.cls-4,.cls-6{stroke:#92a8d1;}.cls-1,.cls-2{stroke-width:6px;}.cls-2,.cls-4{fill:none;}.cls-3,.cls-4{stroke-width:5px;}.cls-5,.cls-6{fill:#92a8d1;}.cls-6{stroke-miterlimit:10;stroke-width:3px;}</style></defs><g id="Calque_2" data-name="Calque 2"><g id="Calque_1-2" data-name="Calque 1"><path id="Tracé_1" data-name="Tracé 1" class="cls-1" d="M182.8,9.62,3.35,533.05l394.73,531.48L774.92,533.05,613.37,9.62,398.08,628Z"/><path id="Tracé_2" data-name="Tracé 2" class="cls-2" d="M3.35,533.05,398.08,224.9,774.92,533.05"/><path id="Tracé_3" data-name="Tracé 3" class="cls-3" d="M398.38,1064.5,956.22,635.39,644.49,721.47a.33.33,0,0,0-.19.14L397.88,1064A.35.35,0,0,0,398.38,1064.5Z"/><path id="Tracé_4" data-name="Tracé 4" class="cls-4" d="M796.48,760.55l-62.91-62.91"/><path id="Tracé_6" data-name="Tracé 6" class="cls-5" d="M182.8,138.79l43,172.54L75.15,440.5Z"/><path id="Tracé_6-2" data-name="Tracé 6" class="cls-5" d="M613.37,135.13l-50.51,176.2L713.56,440.5Z"/></g><g id="Calque_2-2" data-name="Calque 2"><path class="cls-6" d="M146.71,780.6a1.6,1.6,0,0,1,2.37.37l31,42.73a1.53,1.53,0,1,1-2.47,1.8l-30-41.36-44.38,32.25,30,41.36a1.53,1.53,0,1,1-2.47,1.79l-30.05-41.36L54.58,851.73a1.7,1.7,0,0,1-2-2.75Z"/><path class="cls-6" d="M132.4,886.3l60.32-43.82a1.7,1.7,0,0,1,2,2.75L134.4,889.05c-20.61,15-24.2,38.36-11.62,55.68s35.93,21.13,56.54,6.15l60.32-43.82a1.7,1.7,0,0,1,2,2.75l-60.32,43.82c-22,16-47.34,11.72-61-7.11S110.41,902.28,132.4,886.3Z"/><path class="cls-6" d="M233.26,998.82l18.34-73.57a1.77,1.77,0,0,1,.66-1.11,1.82,1.82,0,0,1,2.37.37,1.75,1.75,0,0,1,.25,1.5L236.73,998.4l74.42,5.34a1.77,1.77,0,0,1,1.34.7,1.53,1.53,0,0,1-.33,2.14,1.87,1.87,0,0,1-1.26.29l-75.51-5.4-47.13,34.24a1.7,1.7,0,0,1-2-2.74Z"/><path class="cls-6" d="M262.18,1064.93l60.32-43.82a1.7,1.7,0,0,1,2,2.75l-60.32,43.82c-20.61,15-24.2,38.36-11.62,55.67s35.93,21.14,56.54,6.16l60.32-43.82a1.7,1.7,0,0,1,2,2.75l-60.32,43.82c-22,16-47.33,11.72-61-7.11S240.2,1080.91,262.18,1064.93Z"/></g></g></svg>